<mxfile host="Electron" modified="2023-04-04T08:19:48.484Z" agent="Mozilla/5.0 (Windows NT 10.0; Win64; x64) AppleWebKit/537.36 (KHTML, like Gecko) draw.io/21.1.2 Chrome/106.0.5249.199 Electron/21.4.3 Safari/537.36" etag="hOanr5mPjYKSTxyszSIv" version="21.1.2" type="device">
  <diagram name="Page-1" id="0WtPDwMcqf8bhKTrtkRJ">
    <mxGraphModel dx="1418" dy="870" grid="1" gridSize="10" guides="1" tooltips="1" connect="1" arrows="1" fold="1" page="1" pageScale="1" pageWidth="827" pageHeight="1169" math="0" shadow="0">
      <root>
        <mxCell id="0" />
        <mxCell id="1" parent="0" />
        <mxCell id="-fUuNyg0mdRVd9nwvy_z-5" style="edgeStyle=orthogonalEdgeStyle;rounded=0;orthogonalLoop=1;jettySize=auto;html=1;exitX=1;exitY=0.5;exitDx=0;exitDy=0;entryX=0;entryY=0.5;entryDx=0;entryDy=0;fillColor=#dae8fc;strokeColor=#6c8ebf;" parent="1" source="-fUuNyg0mdRVd9nwvy_z-1" target="-fUuNyg0mdRVd9nwvy_z-2" edge="1">
          <mxGeometry relative="1" as="geometry" />
        </mxCell>
        <mxCell id="-fUuNyg0mdRVd9nwvy_z-1" value="An update &lt;br&gt;is pushed" style="rounded=0;whiteSpace=wrap;html=1;fillColor=#dae8fc;strokeColor=#6C8EBF;" parent="1" vertex="1">
          <mxGeometry x="80" y="40" width="120" height="40" as="geometry" />
        </mxCell>
        <mxCell id="-fUuNyg0mdRVd9nwvy_z-7" style="edgeStyle=orthogonalEdgeStyle;rounded=0;orthogonalLoop=1;jettySize=auto;html=1;exitX=1;exitY=0.5;exitDx=0;exitDy=0;entryX=0;entryY=0.5;entryDx=0;entryDy=0;fillColor=#dae8fc;strokeColor=#6C8EBF;" parent="1" source="-fUuNyg0mdRVd9nwvy_z-2" target="-fUuNyg0mdRVd9nwvy_z-6" edge="1">
          <mxGeometry relative="1" as="geometry" />
        </mxCell>
        <mxCell id="-fUuNyg0mdRVd9nwvy_z-2" value="A container &lt;br&gt;image is created" style="rounded=0;whiteSpace=wrap;html=1;fillColor=#dae8fc;strokeColor=#6c8ebf;" parent="1" vertex="1">
          <mxGeometry x="240" y="40" width="120" height="40" as="geometry" />
        </mxCell>
        <mxCell id="-fUuNyg0mdRVd9nwvy_z-9" style="edgeStyle=orthogonalEdgeStyle;rounded=0;orthogonalLoop=1;jettySize=auto;html=1;exitX=0.5;exitY=1;exitDx=0;exitDy=0;entryX=0.5;entryY=0;entryDx=0;entryDy=0;fillColor=#1ba1e2;strokeColor=#6C8EBF;" parent="1" source="-fUuNyg0mdRVd9nwvy_z-6" target="-fUuNyg0mdRVd9nwvy_z-8" edge="1">
          <mxGeometry relative="1" as="geometry" />
        </mxCell>
        <mxCell id="-fUuNyg0mdRVd9nwvy_z-6" value="A container &lt;br&gt;image is pushed" style="rounded=0;whiteSpace=wrap;html=1;fillColor=#dae8fc;strokeColor=#6c8ebf;" parent="1" vertex="1">
          <mxGeometry x="400" y="40" width="120" height="40" as="geometry" />
        </mxCell>
        <mxCell id="-fUuNyg0mdRVd9nwvy_z-17" style="edgeStyle=orthogonalEdgeStyle;rounded=0;orthogonalLoop=1;jettySize=auto;html=1;exitX=0;exitY=0.5;exitDx=0;exitDy=0;entryX=0.5;entryY=0;entryDx=0;entryDy=0;shadow=0;fillColor=#d5e8d4;strokeColor=#82b366;" parent="1" source="-fUuNyg0mdRVd9nwvy_z-8" target="-fUuNyg0mdRVd9nwvy_z-13" edge="1">
          <mxGeometry relative="1" as="geometry" />
        </mxCell>
        <mxCell id="-fUuNyg0mdRVd9nwvy_z-8" value="Gitops repository is updated with new image tag" style="rounded=0;whiteSpace=wrap;html=1;fillColor=#d5e8d4;strokeColor=#82B366;" parent="1" vertex="1">
          <mxGeometry x="400" y="120" width="120" height="50" as="geometry" />
        </mxCell>
        <mxCell id="-fUuNyg0mdRVd9nwvy_z-10" value="" style="endArrow=none;dashed=1;html=1;rounded=0;fontColor=#6C8EBF;fillColor=#1ba1e2;strokeColor=#006EAF;" parent="1" edge="1">
          <mxGeometry width="50" height="50" relative="1" as="geometry">
            <mxPoint x="40" y="100" as="sourcePoint" />
            <mxPoint x="600" y="100" as="targetPoint" />
          </mxGeometry>
        </mxCell>
        <mxCell id="-fUuNyg0mdRVd9nwvy_z-11" value="Source repository" style="text;html=1;fillColor=none;align=left;verticalAlign=middle;whiteSpace=wrap;rounded=0;fontStyle=1;fontColor=#6C8EBF;" parent="1" vertex="1">
          <mxGeometry x="40" y="10" width="200" height="30" as="geometry" />
        </mxCell>
        <mxCell id="-fUuNyg0mdRVd9nwvy_z-12" style="edgeStyle=orthogonalEdgeStyle;rounded=0;orthogonalLoop=1;jettySize=auto;html=1;exitX=1;exitY=0.5;exitDx=0;exitDy=0;entryX=0;entryY=0.5;entryDx=0;entryDy=0;fillColor=#d5e8d4;strokeColor=#82B366;" parent="1" source="-fUuNyg0mdRVd9nwvy_z-13" target="-fUuNyg0mdRVd9nwvy_z-15" edge="1">
          <mxGeometry relative="1" as="geometry" />
        </mxCell>
        <mxCell id="-fUuNyg0mdRVd9nwvy_z-13" value="ArgoCD polls &lt;br&gt;for changes" style="rounded=0;whiteSpace=wrap;html=1;fillColor=#d5e8d4;strokeColor=#82b366;" parent="1" vertex="1">
          <mxGeometry x="80" y="200" width="120" height="40" as="geometry" />
        </mxCell>
        <mxCell id="-fUuNyg0mdRVd9nwvy_z-14" style="edgeStyle=orthogonalEdgeStyle;rounded=0;orthogonalLoop=1;jettySize=auto;html=1;exitX=0.5;exitY=1;exitDx=0;exitDy=0;entryX=0.5;entryY=0;entryDx=0;entryDy=0;strokeColor=#82B366;" parent="1" source="-fUuNyg0mdRVd9nwvy_z-15" target="-fUuNyg0mdRVd9nwvy_z-16" edge="1">
          <mxGeometry relative="1" as="geometry" />
        </mxCell>
        <mxCell id="-fUuNyg0mdRVd9nwvy_z-15" value="A change is detected" style="rounded=0;whiteSpace=wrap;html=1;fillColor=#d5e8d4;strokeColor=#82b366;" parent="1" vertex="1">
          <mxGeometry x="400" y="200" width="120" height="40" as="geometry" />
        </mxCell>
        <mxCell id="-fUuNyg0mdRVd9nwvy_z-16" value="The update is deployed to k8s" style="rounded=0;whiteSpace=wrap;html=1;fillColor=#b0e3e6;strokeColor=#0E8088;" parent="1" vertex="1">
          <mxGeometry x="400" y="280" width="120" height="40" as="geometry" />
        </mxCell>
        <mxCell id="-fUuNyg0mdRVd9nwvy_z-18" value="Gitops repository" style="text;html=1;strokeColor=none;fillColor=none;align=left;verticalAlign=middle;whiteSpace=wrap;rounded=0;fontStyle=1;fontColor=#82B366;" parent="1" vertex="1">
          <mxGeometry x="40" y="110" width="200" height="30" as="geometry" />
        </mxCell>
        <mxCell id="-fUuNyg0mdRVd9nwvy_z-19" value="" style="endArrow=none;dashed=1;html=1;rounded=0;fillColor=#60a917;strokeColor=#2D7600;" parent="1" edge="1">
          <mxGeometry width="50" height="50" relative="1" as="geometry">
            <mxPoint x="40" y="260" as="sourcePoint" />
            <mxPoint x="600" y="260" as="targetPoint" />
          </mxGeometry>
        </mxCell>
        <mxCell id="-fUuNyg0mdRVd9nwvy_z-20" value="Kubernetes environment" style="text;html=1;fillColor=none;align=left;verticalAlign=middle;whiteSpace=wrap;rounded=0;fontStyle=1;fontColor=#0E8088;" parent="1" vertex="1">
          <mxGeometry x="40" y="280" width="200" height="30" as="geometry" />
        </mxCell>
      </root>
    </mxGraphModel>
  </diagram>
</mxfile>
